# FamiTracker text export 0.4.2

# Song information
TITLE           "Cowboy Guns"
AUTHOR          "Cloovar"
COPYRIGHT       "Cloovar"

# Song comment
COMMENT ""

# Global settings
MACHINE         0
FRAMERATE       0
EXPANSION       0
VIBRATO         1
SPLIT           32

# Macros
MACRO       0   0  -1  -1   0 : 15 13 11 9 6 4 2 0
MACRO       0   1  -1  -1   0 : 15 10 5 0
MACRO       0   2  -1  -1   0 : 15
MACRO       2   0  -1  -1   0 : 127
MACRO       3   0  -1  -1   0 : 13
MACRO       4   0  -1  -1   0 : 3

# DPCM samples
DPCMDEF   0  2081 "Shoot"
DPCM : 55 55 55 55 55 55 55 55 55 55 55 55 55 55 55 55 55 55 55 55 55 55 55 55 55 55 55 55 55 55 55 55
DPCM : 55 55 55 55 55 55 55 55 55 55 55 55 55 55 55 55 55 55 55 55 55 55 55 55 55 55 55 55 55 55 55 55
DPCM : 55 55 55 55 55 55 55 55 55 55 55 55 55 55 55 55 55 55 55 55 55 55 55 55 55 55 55 55 55 55 55 55
DPCM : 55 55 55 55 55 55 55 55 55 55 55 55 B5 E6 03 D0 F8 0F C4 FF 01 00 80 FF FF FF FF BF 43 00 00 00
DPCM : 00 00 B0 FF 3F FC FF FF FF FF 00 80 3E 00 00 00 80 FF FF B1 FF FF F0 07 80 FF 3F 00 00 00 40 3F
DPCM : FF FF E3 FF 0F 04 80 FF FF 03 00 00 00 00 FF FF FF 00 00 FB FF FF 07 00 EE 01 00 00 E0 3F E3 F7
DPCM : 01 FC CF 00 00 FC FF 7F 98 FE FF FF FF 01 00 30 00 00 00 00 00 50 B5 B1 FC FF FF FF FF FF FF FF
DPCM : FF FF FF 0F 00 00 00 00 00 00 00 A8 5A D5 7F 00 AA FE FF FF FF FF FF 7F 1E E0 7F 00 00 00 00 00
DPCM : 0C FF FF FF E0 FF FF FF FF FF 1F 00 00 00 00 E0 FF FF FF 03 00 00 00 00 00 C0 52 55 F5 FF FF FF
DPCM : FF FF 1F 00 00 80 FF FF FF FF FF FF FF FF FF 1F 00 00 00 00 00 00 00 50 AB FF FF FF FF FF FF FF
DPCM : FF 7F 00 00 00 00 00 00 00 E0 FF FF FF FF FF FF 03 0C 70 00 80 8C 00 00 00 4A 55 AD FA C0 FF FF
DPCM : FF FF FF FF FF 3F 00 00 E0 01 00 00 00 00 60 1F FE FF FB FF FF FF 7F 80 FF FF F0 01 00 00 00 00
DPCM : 00 00 C0 A1 FE FF FF FF FF 0F 01 43 00 00 00 FF FF FF FF F8 FF FF FF FF FF FF 01 00 00 00 00 00
DPCM : 00 FC BF FF FF FF FF 03 00 00 00 00 E0 00 3C FF FF FF FF FF FF FF F3 FF FF FF FF 1F 00 00 00 00
DPCM : 00 00 00 C8 2A 55 55 FF FF FF FF FF FF FF FF FF FF FF 03 00 00 00 00 00 00 00 59 65 95 AA DA FF
DPCM : FF FF FF FF FF FF FF FF FF 0F 00 00 00 00 00 00 00 94 AA DA FF FF FF FF FF FF FF FF FF FF 07 00
DPCM : 00 00 00 00 00 10 A8 FE FE FF 7F E8 7B 1D 3D 68 7F 05 00 00 FC FF D7 2D F1 0F 1E 20 FF F6 67 06
DPCM : 00 55 B8 A8 14 A9 B6 7E B5 B1 FF E0 BF 57 F9 FF F7 07 00 00 00 00 00 38 01 7C C4 57 2F 80 FF 3D
DPCM : C8 3E F5 EF FF FF FF FF FF FF 3F 00 00 00 00 00 00 00 F4 FF FE FF FF FF FF FF FF 8B 00 80 08 23
DPCM : 7C 00 00 04 94 4A 60 FB AF 62 FB BB FD 7A A0 60 E0 8F E0 5A FF BF A5 4A 82 A8 54 4A B4 81 D0 BF
DPCM : 4A FE 1F FC F3 3F FC 5A F7 24 01 9C 00 00 00 9B 22 69 02 00 D0 B6 7F FF FF FF E9 F7 FF 22 20 20
DPCM : 5D 90 FE 2D 16 1D AA 48 A4 04 08 E4 6A 81 80 9C 94 76 FB FF FF FF FF FF FF 9F 58 08 02 00 40 16
DPCM : 00 00 5C FA FF DF BE 2A 42 00 00 74 F5 6F FF FF 6D AB 29 49 A4 08 89 14 09 A4 54 50 75 BF FF DD
DPCM : EF FF 03 FD 26 91 4A 64 57 9B BE 08 00 20 00 80 88 A4 6A D5 DD F7 DF FF FF DE 5A 49 4A 04 11 44
DPCM : A9 14 29 55 5D DB DD 7D B7 4A 84 48 A4 12 25 ED 6D 6B 6D 77 5F 29 6D 55 49 02 12 41 48 A5 EE 7D
DPCM : 5B 55 59 AA D4 D6 6D 55 12 11 24 55 D5 76 7B DD DA B5 12 41 22 4A 55 DB DE BE EF F7 D6 AA 4A 04
DPCM : 01 00 00 92 52 55 6A 55 55 AB AA B5 DA 76 DF 7B 7F DF 77 B7 55 0A 01 02 21 42 01 81 90 24 49 DA
DPCM : AA DD FD FF FF FF 5D 55 49 44 48 44 48 24 22 49 25 D5 AA B5 DD F7 6D DB 56 B5 6A 55 AB AA 4A 49
DPCM : 22 89 24 89 88 10 49 52 92 AA B5 BD BF FF BF DF DD B6 D5 AA 6A 55 49 92 48 20 00 00 42 44 92 A4
DPCM : 76 EF FB DE DD B5 5B 6B B5 D6 6A 55 55 29 49 94 AA 52 55 4A 55 52 92 92 24 49 4A D5 DA DD FB EE
DPCM : 7B BB B5 AA 52 29 91 48 92 54 A9 AA 56 55 2B 55 55 49 24 4A A9 6A 55 AB B5 B5 B5 56 B7 B5 5A 95
DPCM : 92 24 25 55 55 D5 6A D5 B6 B5 5A 55 55 A5 2A 55 2A A5 2A 55 15 49 4A 4A A5 54 6D DB 76 5B DB AA
DPCM : 4A A5 54 55 55 B5 D6 6A 55 A5 2A 95 52 25 A5 52 AD B5 D5 D6 AA AA 52 52 52 AA 5A 55 55 AD AA AA
DPCM : 6A B5 6D AB 55 55 A5 A4 94 54 25 A5 54 95 AA AA AA 56 55 55 AB D6 5A B5 D6 5A AD AA 5A A5 4A 29
DPCM : 25 95 44 92 54 B5 6D 77 DD ED D6 5A 55 95 24 89 44 89 48 4A 55 55 55 6B AD AD AD 55 55 55 55 55
DPCM : 55 55 D5 5A 6B 55 55 A9 94 52 A5 AA AA 55 D5 6A 55 55 55 A9 AA 52 55 95 2A 55 55 AB 56 D5 5A AD
DPCM : 2A 55 A9 54 95 52 A9 54 A5 AA AA AA 55 55 AD 5A B5 5A 55 D5 6A B5 5A 6B B5 56 55 55 A9 4A 55 A9
DPCM : 94 52 4A 95 52 2A 55 4A 49 4A 52 2A B5 DA B6 7B 77 ED D6 5A 55 55 B5 6A 6D 6B AD 4A 25 11 11 91
DPCM : 48 24 49 A9 AA 6A AD D6 5A 6B B5 B5 D5 B6 6D 6B AD AA 4A A5 94 92 92 52 49 92 A4 54 AD 5A 6B AD
DPCM : D5 AA 55 D5 6A D5 AA 56 55 A9 AA 54 55 55 55 55 A5 52 A5 A4 A4 AA AA AA AA 5A B5 6A D5 6A 55 AD
DPCM : D6 D6 B6 B6 5A 55 A9 52 52 92 44 11 11 11 49 AA 6A DB 76 77 77 6D B7 D6 6A 55 55 A5 4A A5 54 A9
DPCM : 4A A5 52 25 A5 94 4A 55 AD D6 DA 5A AD 55 AD AA AA 4A 55 95 AA AA 54 A5 94 54 2A 55 D5 AA 56 AB
DPCM : D5 5A 55 AD 6A 55 AB B5 B5 B5 5A A5 92 24 49 52 29 55 AA AA AA AA 4A 55 AA AA 54 55 55 55 55 AB
DPCM : 56 AB D5 6A 55 AD D6 D6 D6 B6 B6 56 AD 2A 55 29 A5 94 92 92 14 15 11 11 11 91 A4 94 AA 5A 6D ED
DPCM : 76 EF BE B7 F7 DE ED 6E 5B AB A5 4A 49 12 49 92 48 24 92 88 88 44 49 A5 AA 5A B5 5A 6B DB B6 5D
DPCM : 5B B5 6A 55 55 D5 AA D5 5A B5 AA 2A 95 4A 29 29 55 2A 55 AA AA 6A B5 56 6D AD B5 AA AA 2A 95 92
DPCM : 52 29 29 A5 2A B5 AA 5A 55 55 55 55 55 55 AB D5 5A B5 56 6B B5 5A D5 AA AA 52 55 A5 AA 54 4A 29
DPCM : 95 94 92 4A A5 4A 55 55 55 AD D6 DA DA 56 DB D6 D6 AA 55 55 AA 52 A5 52 A5 2A 55 4A 55 92 92 52
DPCM : 2A 55 55 AB D5 5A 5B 5B D5 6A 55 55 55 55 55 55 95 AA AA 52 55 55 AB 5A AD 6A 55 55 55 95 2A A5
DPCM : 54 92 92 94 4A 55 55 D5 6A AD 6D 6D B5 D6 6A 55 55 55 55 55 55 95 2A 55 2A 55 55 55 A9 AA 54 55
DPCM : 55 D5 AA 55 55 D5 AA 2A 55 55 55 55 55 95 AA AA AA 6A 55 55 55 55 55 55 55 55 55 55 D5 AA AA AA
DPCM : AA 4A 55 55 55 55 55 55 55 55 55 55 55 55 55 55 55 55 55 D5 AA AA 2A 55 55 95 AA 52 55 55 B5 5A
DPCM : 55 AD 56 55 55 95 AA 54 55 55 A5 AA AA 56 55 55 55 55 55 55 55 55 55 55 55 55 55 55 55 95 AA AA
DPCM : AA AA AA AA 55 55 B5 6A B5 6A 55 AB 4A 95 4A 29 95 92 52 A9 4A 55 AB 6A 55 AB 5A D5 AA 55 AD B5
DPCM : D6 5A AD AA AA 54 4A 49 49 95 94 4A A5 AA AA 6A B5 5A AD 55 D5 6A D5 AA AA AA 54 A5 52 55 A5 AA
DPCM : AA AA AA 52 55 55 55 55 AD AA 5A 55 55 AB 56 B5 AA 52 55 55 55 AA AA AA 2A 55 55 55 55 55 55 95
DPCM : AA AA 52 55 55 55 D5 AA 55 55 AB 56 55 55 55 95 4A 55 A5 2A 55 55 55 AD AA AA AA AA 5A 55 55 55
DPCM : 55 D5 AA 5A 55 55 55 55 55 55 A9 4A 55 55 55 95 AA 56 55 55 55 55 55 55 55 AA AA AA 56 55 55 55
DPCM : 55 55 55 55 AA AA AA AA AA AA AA AA 55 55 55 B5 AA 5A 55 55 D5 AA AA 52 55 95 AA 54 55 55 55 A5
DPCM : AA AA AA AA AA AA AA AA 6A 55 55 55 55 55 55 55 55 55 55 55 55 55 55 55 55 55 55 AD AA 4A 55 55
DPCM : 55 55 55 55 55 A9 AA AA AA 5A 55 55 55 55 55 AB AA AA AA AA AA AA 2A 55 55 55 55 AA AA 54 55 55
DPCM : D5 AA AA 5A 55 55 55 D5 AA AA AA 56 55 AA AA AA 54 55 55 55 55 55 55 AA AA AA AA AA AA AA AA 5A
DPCM : 55 55 55 55 55 B5 AA AA AA AA AA 4A 55 55 55 55 55 55 55 55 55 55 55 55 55 55 55 55 55 55 55 55
DPCM : 55 55 55 55 55 55 55 A5 AA AA AA AA 6A 55 55 55 55 55 55 55 55 AD AA AA AA AA AA AA AA AA 54 55
DPCM : 55 55 55 55 55 55 55 55 A9 AA AA AA AA 6A 55 55 55 55 55 55 55 55 55 55 55 55 55 55 55 55 55 55
DPCM : 55
DPCMDEF   1  1649 "reload"
DPCM : 55 55 55 55 55 55 55 55 55 55 55 55 55 55 55 55 55 55 55 55 55 55 55 55 55 55 55 55 55 55 55 55
DPCM : 55 55 55 55 55 55 55 55 55 55 55 55 55 55 55 55 55 55 55 55 55 55 55 55 55 55 55 55 55 55 55 55
DPCM : 55 55 55 55 55 55 55 55 55 55 55 55 55 55 55 55 55 55 55 55 55 55 55 55 55 55 55 55 55 55 55 55
DPCM : 55 55 55 55 55 55 55 55 55 55 55 55 55 55 55 55 55 55 55 55 55 55 55 55 55 55 55 55 55 55 55 55
DPCM : 55 55 55 55 55 55 55 55 55 55 55 55 55 55 55 55 55 55 55 55 55 55 55 55 55 55 55 55 55 55 55 55
DPCM : 55 55 55 55 55 55 55 55 55 55 55 55 55 55 55 65 AA AA AA AA B4 AA 2A 4B D5 B2 AA AA AA 55 55 59
DPCM : 55 55 55 55 55 55 55 55 55 55 53 55 55 55 55 55 B5 54 53 55 55 55 55 55 55 55 55 55 55 55 55 55
DPCM : D5 52 53 55 55 55 95 55 A5 AA AA A6 55 55 55 55 55 56 AA 4A 2B 55 55 55 D5 52 D5 D2 AA AA 55 55
DPCM : 55 55 55 55 55 55 55 A5 6A 55 55 55 A5 56 55 5A 55 59 55 95 55 55 55 55 55 55 55 55 AA 55 55 55
DPCM : 55 55 55 55 55 AD AA CC D4 AC AA 52 55 55 55 55 A5 96 AA AA B4 AA AA AA B4 4A A5 56 55 A9 6A 6A
DPCM : AA 55 D5 AA AA 56 55 59 5A 65 69 55 55 55 95 A6 36 59 55 A5 95 95 9A 56 55 55 55 55 55 55 AD AA
DPCM : AA B4 D5 4A 55 55 B5 2A 55 55 53 55 55 52 B5 CA 4C 55 55 55 95 66 55 55 55 A5 65 59 C9 DA 58 26
DPCM : 39 9D D8 E1 36 15 6D 66 CB 54 93 95 A6 95 4D D9 54 56 96 55 95 D3 92 B6 A4 65 69 4D B2 D9 A6 99
DPCM : 65 19 6D B2 D9 32 D2 6C A9 49 1B DB 32 CB 64 93 4D B3 49 36 CB 64 99 4D B2 C9 32 9B 64 D5 6C 34
DPCM : 55 B6 31 35 4D 2D 69 65 59 C9 1A 5B 1A DA C6 B2 4C B3 C9 AA 99 74 B2 66 96 69 B2 59 65 95 CA 56
DPCM : 55 33 39 4D CD D9 94 B4 4A 07 7F 41 0F B7 E0 89 07 FE 83 87 99 4C F3 C1 78 98 8F AD 34 3E 02 B7
DPCM : E1 1C CD D2 B4 38 59 56 35 4E 93 D6 48 87 D5 70 0B F3 B0 16 A3 35 BC CA 86 4F B8 A5 27 59 93 A5
DPCM : 3C C9 43 E3 33 6C E8 6D B0 8B D9 56 6A 69 6A 6A 59 55 65 C9 B2 1A B9 9A C9 A5 32 8B 9D A6 5A 95
DPCM : 55 56 55 55 55 35 AB B4 2C D5 6A 9A A9 A6 32 AB 54 4B 53 55 55 CA A9 6C 49 53 59 55 55 A6 95 55
DPCM : 6A 55 D5 2A AD AA 9A AA B1 6C 56 65 55 55 56 55 59 4D 65 55 59 55 55 55 55 55 95 55 55 55 A9 5C
DPCM : 96 55 59 55 55 55 55 55 53 55 55 55 59 56 6A AC AA A6 4A D5 B2 2A D5 1A AA 4D F0 07 D3 A3 AE 91
DPCM : 55 F4 64 35 B5 AC 64 33 D6 92 72 65 1D 65 59 65 8B A5 65 AD 65 69 2C 4D CE 56 55 29 AD 9A E9 61
DPCM : 26 0F 97 F0 E1 71 5C E5 D4 31 1D 1E D6 D2 3C 0B 33 4D D5 D2 CC C6 61 D3 1C 2D 4D 9B B2 54 2D 56
DPCM : 53 65 55 B1 15 9D A6 B4 49 4B 56 76 D8 85 97 66 59 CA 55 69 55 26 75 59 5A B4 95 5C 49 9B 34 5D
DPCM : 55 A5 75 54 65 56 9B 26 6B 94 4D 75 F2 78 A4 E6 29 17 D5 D6 74 0D C8 5E B5 91 2C AB E8 0B D2 92
DPCM : 7D 90 C7 52 D2 B6 91 1C F3 41 C7 72 53 43 67 9E 25 A9 3E 4C EC CA C8 F2 8B A4 79 53 F4 0E 66 CA
DPCM : F3 03 DA 40 7E E0 03 7E E8 07 FA F0 60 0F F4 83 3F 70 C1 0F FC E0 F1 DF C0 90 F3 E1 07 BA C0 0F
DPCM : FE 07 03 1F C0 0F D7 8D E1 07 9F 29 91 37 21 FD 90 FD 78 80 0F 1F 3C E0 0F CF 81 0F 3E 65 C0 37
DPCM : 78 03 3E 37 35 B8 1F 18 2E C3 C7 0D DA D9 B9 C6 F0 03 19 0F 2E DB 1F 61 87 1E C2 BA 09 7E 81 7F
DPCM : 38 FD 00 C7 F4 70 70 5C B3 A6 C1 F5 70 78 B0 86 13 7F 70 93 13 1E D6 61 1B B4 6B 03 3F 38 7C 38
DPCM : CC 93 2E 72 23 D9 F8 E0 CC 71 84 E7 07 0F 73 3A 71 3C D8 C4 E9 64 59 F2 24 DF A4 0D 4F 96 7D 82
DPCM : 17 4B BE 01 4F A4 5F 83 2E DB 86 E4 8D 65 4B 92 B6 A5 6D 5B 4B DA 92 96 A4 2D 6D 49 4B D2 B6 0C
DPCM : D2 93 B6 81 2D 6D 69 5B 92 B4 24 A5 2D AD D9 A4 B5 69 0B 4B F2 D6 06 6D 49 DA 93 96 91 BC EC D3
DPCM : B6 25 49 5A 92 B6 A5 21 6D 63 D7 92 94 B4 6D 49 5B D2 BE 2D F2 D8 EE 49 00 FE 7F C9 03 78 01 96
DPCM : 38 F0 3F F0 96 30 E0 E7 87 14 B4 93 A4 03 7F FE 1F 80 09 FC C3 1E 00 FC FF 1F 00 F6 04 78 FE DF
DPCM : B0 07 6D C2 5F 80 BF 24 F9 07 80 49 92 FE 27 C8 46 0B F8 BF BD 04 0C 7C F8 02 D2 FF 31 E9 27 ED
DPCM : 05 80 60 BF 4C B6 DB 26 89 24 96 6D F0 49 B2 F3 6C 93 7C A2 8D 24 59 60 97 EC B7 4D 36 90 64 DB
DPCM : 5C 96 4D 24 F9 6C B3 45 B0 DD B6 80 66 93 E4 93 C8 97 5F 02 FB 25 DB 50 3D E4 37 C0 37 49 DB 58
DPCM : E1 17 6C C2 D3 9A B4 B4 1B 2C B5 E4 24 1F C3 06 BE 7C 70 4D 41 7B F8 06 39 DC 36 A4 E5 A6 8B 0D
DPCM : 69 D9 93 36 E0 CB 09 FA A1 07 5F F0 A6 A4 97 85 5D B2 1F B4 21 1F 5B F0 C5 4D A2 6F 60 CB B6 92
DPCM : B4 95 3C 61 CB D2 F2 A4 43 AB 1B AA 29 2D 8F B6 A5 35 69 1A D3 1C 35 7C C8 59 D2 D2 25 6D 4B 92
DPCM : 9A 96 35 65 55 68 AD 55 4D D2 92 8E 37 C9 45 D3 D3 D0 A3 25 CD 93 A3 3C E1 15 3E B1 B5 B4 6C A3
DPCM : 34 53 67 3A A4 DA 9A DA 94 34 B5 9A 6C 4C AE 96 D4 45 D5 2E 19 6B 92 D9 C9 1E 94 F5 13 65 54 3B
DPCM : D2 13 D5 A4 4B 4D 4F 4A D3 D4 92 35 2D 4D 71 E1 66 9A 16 35 4B A3 DA 6E 54 55 A9 65 B3 CC 52 A5
DPCM : 75 4D 49 B5 A6 95 46 B5 6C 25 3D E9 5A C1 A6 34 65 6D 25 5B 1B 3A D1 2D F5 04 2B EB 83 A5 35 A9
DPCM : 69 EC 03 2D 2D D9 2E A5 34 4B 55 D6 4A A9 96 6C 49 63 CB 16 B6 AC 69 15 6B 59 5E 12 76 95 56 2D
DPCM : 65 59 9A DA 26 D6 26 2B 4B 1B DE 18 B5 43 ED 19 74 0D 7C 99 B4 27 64 ED 09 6D 64 D5 34 7D 42 F4
DPCM : 13 75 65 59 D1 0D 35 93 37 49 71 CE 34 AD 4A 96 E5 16 69 35 D9 05 1F 66 1E 55 2D EC 44 66 4D E8
DPCM : 0F B8 4B 73 54 53 B3 87 9A 66 56 26 DD D4 24 9E 4C 7E 49 36 B1 CD 22 1F D5 95 46 55 B9 62 F5 50
DPCM : 35 65 4D 35 55 53 9B 2C 65 35 53 53 07 DB 54 35 55 25 79 9D 92 49 5B D9 2A A9 68 9B 55 96 D1 B4
DPCM : 65 85 BA A4 EC 95 52 56 9A 33 57 6A 12 DB 8A B6 AA AA AA 55 55 55 55 55 55 55 55 55 55 55 55 55
DPCM : 55 55 33 55 55 55 B3 AA A9 AA AC AA 2A 55 D3 AA AC

# Instruments
INST2A03   0     3  -1  -1  -1  -1 "Samples"
KEYDPCM   0   1   0     0  15   0     0  -1
KEYDPCM   0   1   1     1  15   0     0  -1
INST2A03   1     1  -1  -1  -1  -1 "instrument1"
INST2A03   2     2  -1   0  -1  -1 "instrument2"
INST2A03   3     0  -1  -1  -1   0 "instrument0"
KEYDPCM   3   3   0     0  15   0     0  -1

# Tracks

TRACK  16   6 150 "Cowboys"
COLUMNS : 1 1 1 1 1

ORDER 00 : 00 00 00 00 00
ORDER 01 : 00 00 00 00 00
ORDER 02 : 00 00 00 00 00
ORDER 03 : 00 00 01 00 00
ORDER 04 : 00 00 01 00 00
ORDER 05 : 00 00 01 00 00
ORDER 06 : 00 00 01 00 00
ORDER 07 : 00 00 01 00 00
ORDER 08 : 00 00 01 00 00
ORDER 09 : 00 00 01 00 00
ORDER 0A : 00 00 01 00 00
ORDER 0B : 00 00 01 00 00
ORDER 0C : 00 00 01 00 00
ORDER 0D : 00 00 01 00 00

PATTERN 00
ROW 00 : C-4 03 . ... : G-4 03 . ... : ... .. . ... : 7-# 01 . ... : ... .. . ...
ROW 01 : ... .. . ... : ... .. . ... : ... .. . ... : ... .. . ... : ... .. . ...
ROW 02 : C-4 03 . ... : G-4 03 . ... : ... .. . ... : 5-# 01 . ... : ... .. . ...
ROW 03 : C-4 03 . ... : G-4 03 . ... : ... .. . ... : ... .. . ... : ... .. . ...
ROW 04 : C-4 03 . ... : G-4 03 . ... : ... .. . ... : 7-# 01 . ... : ... .. . ...
ROW 05 : ... .. . ... : ... .. . ... : ... .. . ... : ... .. . ... : ... .. . ...
ROW 06 : C-4 03 . ... : G-4 03 . ... : ... .. . ... : 2-# 01 . ... : ... .. . ...
ROW 07 : C-4 03 . ... : G-4 03 . ... : ... .. . ... : ... .. . ... : ... .. . ...
ROW 08 : C-4 03 . ... : G-4 03 . ... : ... .. . ... : 0-# 01 . ... : ... .. . ...
ROW 09 : ... .. . ... : ... .. . ... : ... .. . ... : ... .. . ... : ... .. . ...
ROW 0A : C-4 03 . ... : G-4 03 . ... : ... .. . ... : 1-# 01 . ... : ... .. . ...
ROW 0B : C-4 03 . ... : G-4 03 . ... : ... .. . ... : ... .. . ... : ... .. . ...
ROW 0C : C-4 03 . ... : G-4 03 . ... : ... .. . ... : 5-# 01 . ... : ... .. . ...
ROW 0D : ... .. . ... : ... .. . ... : ... .. . ... : ... .. . ... : ... .. . ...
ROW 0E : C-4 03 . ... : G-4 03 . ... : ... .. . ... : 2-# 01 . ... : ... .. . ...
ROW 0F : ... .. . ... : ... .. . ... : ... .. . ... : ... .. . ... : ... .. . ...

PATTERN 01
ROW 00 : ... .. . ... : ... .. . ... : C-4 03 . ... : ... .. . ... : ... .. . ...
ROW 01 : ... .. . ... : ... .. . ... : ... .. . ... : ... .. . ... : ... .. . ...
ROW 02 : ... .. . ... : ... .. . ... : C-4 03 . ... : ... .. . ... : ... .. . ...
ROW 03 : ... .. . ... : ... .. . ... : ... .. . ... : ... .. . ... : ... .. . ...
ROW 04 : ... .. . ... : ... .. . ... : C-5 03 . ... : ... .. . ... : ... .. . ...
ROW 05 : ... .. . ... : ... .. . ... : ... .. . ... : ... .. . ... : ... .. . ...
ROW 06 : ... .. . ... : ... .. . ... : C-5 03 . ... : ... .. . ... : ... .. . ...
ROW 07 : ... .. . ... : ... .. . ... : ... .. . ... : ... .. . ... : ... .. . ...
ROW 08 : ... .. . ... : ... .. . ... : C-4 03 . ... : ... .. . ... : ... .. . ...
ROW 09 : ... .. . ... : ... .. . ... : ... .. . ... : ... .. . ... : ... .. . ...
ROW 0A : ... .. . ... : ... .. . ... : C-4 03 . ... : ... .. . ... : ... .. . ...
ROW 0B : ... .. . ... : ... .. . ... : ... .. . ... : ... .. . ... : ... .. . ...
ROW 0C : ... .. . ... : ... .. . ... : C-4 03 . ... : ... .. . ... : ... .. . ...
ROW 0D : ... .. . ... : ... .. . ... : ... .. . ... : ... .. . ... : ... .. . ...
ROW 0E : ... .. . ... : ... .. . ... : C-5 03 . ... : ... .. . ... : ... .. . ...
ROW 0F : ... .. . ... : ... .. . ... : ... .. . ... : ... .. . ... : ... .. . ...

TRACK  16  11 150 "Gamble"
COLUMNS : 1 1 1 1 1

ORDER 00 : 00 00 00 00 00
ORDER 01 : 00 00 01 00 00

PATTERN 00
ROW 00 : ... .. . ... : ... .. . ... : G-4 02 . ... : ... .. . ... : ... .. . ...
ROW 01 : ... .. . ... : ... .. . ... : C-4 02 . ... : ... .. . ... : ... .. . ...
ROW 02 : ... .. . ... : ... .. . ... : --- .. . ... : ... .. . ... : ... .. . ...
ROW 03 : ... .. . ... : ... .. . ... : ... .. . ... : ... .. . ... : ... .. . ...
ROW 04 : ... .. . ... : ... .. . ... : C-4 02 . ... : ... .. . ... : ... .. . ...
ROW 05 : ... .. . ... : ... .. . ... : A-4 02 . ... : ... .. . ... : ... .. . ...
ROW 06 : ... .. . ... : ... .. . ... : --- .. . ... : ... .. . ... : ... .. . ...
ROW 07 : ... .. . ... : ... .. . ... : B-4 02 . ... : ... .. . ... : ... .. . ...
ROW 08 : ... .. . ... : ... .. . ... : C-4 02 . ... : ... .. . ... : ... .. . ...
ROW 09 : ... .. . ... : ... .. . ... : --- .. . ... : ... .. . ... : ... .. . ...
ROW 0A : ... .. . ... : ... .. . ... : G-4 02 . ... : ... .. . ... : ... .. . ...
ROW 0B : ... .. . ... : ... .. . ... : C-4 02 . ... : ... .. . ... : ... .. . ...
ROW 0C : ... .. . ... : ... .. . ... : --- .. . ... : ... .. . ... : ... .. . ...
ROW 0D : ... .. . ... : ... .. . ... : ... .. . ... : ... .. . ... : ... .. . ...
ROW 0E : ... .. . ... : ... .. . ... : E-4 02 . ... : ... .. . ... : ... .. . ...
ROW 0F : ... .. . ... : ... .. . ... : C-4 02 . ... : ... .. . ... : ... .. . ...

PATTERN 01
ROW 00 : ... .. . ... : ... .. . ... : --- .. . ... : ... .. . ... : ... .. . ...
ROW 01 : ... .. . ... : ... .. . ... : ... .. . ... : ... .. . ... : ... .. . ...
ROW 02 : ... .. . ... : ... .. . ... : G-4 02 . ... : ... .. . ... : ... .. . ...
ROW 03 : ... .. . ... : ... .. . ... : C-4 02 . ... : ... .. . ... : ... .. . ...
ROW 04 : ... .. . ... : ... .. . ... : --- .. . ... : ... .. . ... : ... .. . ...
ROW 05 : ... .. . ... : ... .. . ... : ... .. . ... : ... .. . ... : ... .. . ...
ROW 06 : ... .. . ... : ... .. . ... : B-4 02 . ... : ... .. . ... : ... .. . ...
ROW 07 : ... .. . ... : ... .. . ... : C-4 02 . ... : ... .. . ... : ... .. . ...
ROW 08 : ... .. . ... : ... .. . ... : --- .. . ... : ... .. . ... : ... .. . ...
ROW 09 : ... .. . ... : ... .. . ... : C-4 02 . ... : ... .. . ... : ... .. . ...
ROW 0A : ... .. . ... : ... .. . ... : A-4 02 . ... : ... .. . ... : ... .. . ...
ROW 0B : ... .. . ... : ... .. . ... : --- .. . ... : ... .. . ... : ... .. . ...
ROW 0C : ... .. . ... : ... .. . ... : G-4 02 . ... : ... .. . ... : ... .. . ...
ROW 0D : ... .. . ... : ... .. . ... : C-4 02 . ... : ... .. . ... : ... .. . ...
ROW 0E : ... .. . ... : ... .. . ... : --- .. . ... : ... .. . ... : ... .. . ...
ROW 0F : ... .. . ... : ... .. . ... : ... .. . ... : ... .. . ... : ... .. . ...

# End of export
